<svg width="20" height="23" viewBox="0 0 20 23" fill="none" xmlns="http://www.w3.org/2000/svg">
<path d="M4.04803 11.0898C4.33953 11.0898 4.57604 10.8495 4.57604 10.5532V6.797H9.15212V10.5532C9.15212 10.8495 9.38863 11.0898 9.68013 11.0898C9.97164 11.0898 10.2081 10.8495 10.2081 10.5532V6.797H14.7842V10.5532C14.7842 10.8495 15.0207 11.0898 15.3122 11.0898C15.6037 11.0898 15.8402 10.8495 15.8402 10.5532V6.2604C15.8402 2.8081 13.0764 0 9.68013 0C6.28382 0 3.52002 2.8081 3.52002 6.2604V10.5532C3.52002 10.8495 3.75652 11.0898 4.04803 11.0898ZM14.7309 5.72379H10.2081V1.12745C12.596 1.3816 14.4808 3.2971 14.7309 5.72379ZM9.15212 1.12745V5.72379H4.62941C4.87949 3.2971 6.76431 1.3816 9.15212 1.12745Z" fill="#4D4D4D"/>
<path d="M17.4243 12.875H1.93604C0.869016 12.875 0 13.7575 0 14.8426C0 15.1388 0.236504 15.3792 0.52801 15.3792C0.819515 15.3792 1.05602 15.1388 1.05602 14.8426C1.05602 14.3493 1.45065 13.9482 1.93604 13.9482H2.11204V21.4607H1.93604C1.64453 21.4607 1.40803 21.701 1.40803 21.9973C1.40803 22.2935 1.64453 22.5339 1.93604 22.5339H17.4243C17.7158 22.5339 17.9523 22.2935 17.9523 21.9973C17.9523 21.701 17.7158 21.4607 17.4243 21.4607H17.2483V13.9482H17.4243C17.9097 13.9482 18.3043 14.3493 18.3043 14.8426C18.3043 15.1388 18.5408 15.3792 18.8323 15.3792C19.1238 15.3792 19.3604 15.1388 19.3604 14.8426C19.3604 13.7575 18.4913 12.875 17.4243 12.875ZM8.80016 13.9482H10.5602V21.4607H8.80016V13.9482ZM7.74414 21.4607H5.98411V13.9482H7.74414V21.4607ZM11.6162 13.9482H13.3762V21.4607H11.6162V13.9482ZM3.16806 13.9482H4.92809V21.4607H3.16806V13.9482ZM16.1923 21.4607H14.4323V13.9482H16.1923V21.4607Z" fill="#4D4D4D"/>
</svg>
