<svg width="24" height="18" viewBox="0 0 24 18" fill="none" xmlns="http://www.w3.org/2000/svg">
<path d="M1.52051 9.82247C1.52051 12.2316 2.83086 14.3341 4.77755 15.4589C4.77466 16.4431 4.72392 17.2316 5.43491 17.2316C5.93571 17.2316 6.68293 16.8388 7.09967 16.2626C7.40334 16.3068 7.71353 16.3308 8.02953 16.3308H16.62C16.9368 16.3308 17.247 16.3068 17.5499 16.2626C17.9652 16.8388 18.7131 17.2316 19.2147 17.2316C19.9264 17.2316 19.8756 16.4431 19.8727 15.4589C21.8194 14.3333 23.1291 12.2316 23.1291 9.82247V9.44922H1.52051V9.82247Z" fill="#4D4D4D"/>
<path d="M4.30084 5.47277C4.89684 5.47277 5.38 4.98962 5.38 4.39361C5.38 3.79761 4.89684 3.31445 4.30084 3.31445C3.70484 3.31445 3.22168 3.79761 3.22168 4.39361C3.22168 4.98962 3.70484 5.47277 4.30084 5.47277Z" fill="#4D4D4D"/>
<path d="M10.5694 6.00161C11.0769 6.00161 11.4884 5.58108 11.4884 5.06233C11.4884 4.54358 11.0769 4.12305 10.5694 4.12305C10.0618 4.12305 9.65039 4.54358 9.65039 5.06233C9.65039 5.58108 10.0618 6.00161 10.5694 6.00161Z" fill="#4D4D4D"/>
<path d="M8.06977 2.54969C8.77384 2.54969 9.34461 1.97892 9.34461 1.27484C9.34461 0.570767 8.77384 0 8.06977 0C7.36569 0 6.79492 0.570767 6.79492 1.27484C6.79492 1.97892 7.36569 2.54969 8.06977 2.54969Z" fill="#4D4D4D"/>
<path d="M21.3969 0.986471C19.6909 -0.208649 17.9935 0.346513 17.0172 1.01111C16.3316 0.584957 15.0974 0.232726 13.895 1.71485L17.0897 4.90884C18.487 3.80649 18.3682 2.77806 18.0101 2.091C18.5581 1.76631 19.5169 1.43437 20.5664 2.16999C21.8709 3.08391 21.8209 5.80609 21.6796 6.90264C21.6774 6.91786 21.6687 6.97512 21.6593 7.036H16.0838H1.21324C0.542116 7.036 0 7.06281 0 7.73321C0 8.10066 0.542116 8.74134 1.21324 8.74134H23.1298C23.1298 8.74134 23.1298 8.57755 23.1298 8.37679V8.01369V7.03527C23.1298 7.03527 23.1559 6.69899 23.1718 6.44387C23.2537 5.07843 23.1871 2.2403 21.3969 0.986471Z" fill="#4D4D4D"/>
</svg>
