<svg width="32" height="60" viewBox="0 0 32 60" fill="none" xmlns="http://www.w3.org/2000/svg">
<g clip-path="url(#clip0_134_970)">
<rect y="32.9883" width="27" height="27" rx="1" fill="#757575"/>
</g>
<circle cx="13.7646" cy="22.7529" r="9.76458" fill="#6A6A6A"/>
<rect x="8" y="42.3691" width="15.2219" height="20.1527" rx="1" transform="rotate(-29.0044 8 42.3691)" fill="#333333"/>
<rect x="28.7383" y="39.1113" width="4.70173" height="6.23243" transform="rotate(55.6773 28.7383 39.1113)" fill="#666666"/>
<rect x="23.0762" y="41.7422" width="7.21319" height="6.47018" transform="rotate(55.6773 23.0762 41.7422)" fill="#666666"/>
<line x1="24.2868" y1="47.5816" x2="22.1301" y2="49.1992" stroke="#333333"/>
<line x1="23.2082" y1="45.9625" x2="21.0515" y2="47.58" stroke="#333333"/>
<line x1="22.1301" y1="44.3453" x2="19.9734" y2="45.9629" stroke="#333333"/>
<path d="M13.437 6.16664C13.1598 6.06105 12.85 6.08397 12.5913 6.22921L2.48694 11.9034C2.26575 12.0276 2.25592 12.3425 2.46893 12.4802V12.4802C2.48926 12.4934 2.51095 12.5043 2.53362 12.5128L14.0127 16.8175C14.3179 16.9319 14.6596 16.8905 14.9286 16.7064L23.9714 10.5193C23.9899 10.5066 24.0111 10.4984 24.0333 10.4953V10.4953C24.1822 10.4743 24.2054 10.2688 24.0648 10.2152L13.437 6.16664Z" fill="#333333"/>
<defs>
<clipPath id="clip0_134_970">
<rect y="32.9883" width="27" height="27" rx="1" fill="white"/>
</clipPath>
</defs>
</svg>
