<svg width="84" height="67" viewBox="0 0 84 67" fill="none" xmlns="http://www.w3.org/2000/svg">
<rect x="17.1108" y="27.998" width="49.7767" height="38.888" rx="1" fill="url(#paint0_linear_134_983)"/>
<path d="M40.5665 1.47034C41.3516 0.664564 42.6465 0.664563 43.4316 1.47034L75.063 33.9368C76.2977 35.2041 75.3998 37.3325 73.6305 37.3325H10.3676C8.59837 37.3325 7.70048 35.2041 8.93514 33.9368L40.5665 1.47034Z" fill="url(#paint1_linear_134_983)"/>
<path d="M35.7749 52.332C35.7749 51.7797 36.2226 51.332 36.7749 51.332H47.2191C47.7714 51.332 48.2191 51.7797 48.2191 52.332V65.8872C48.2191 66.4395 47.7714 66.8872 47.2191 66.8872H36.7749C36.2226 66.8872 35.7749 66.4395 35.7749 65.8872V52.332Z" fill="#482100"/>
<rect x="37.3315" y="18.666" width="9.33313" height="9.33313" rx="1" fill="#AE5100"/>
<defs>
<linearGradient id="paint0_linear_134_983" x1="41.9992" y1="27.998" x2="41.9992" y2="66.8861" gradientUnits="userSpaceOnUse">
<stop stop-color="#2F1701"/>
<stop offset="1" stop-color="#D26C13"/>
</linearGradient>
<linearGradient id="paint1_linear_134_983" x1="41.9991" y1="0" x2="41.9991" y2="49.7767" gradientUnits="userSpaceOnUse">
<stop stop-color="#984A05"/>
<stop offset="1" stop-color="#3F1E01"/>
</linearGradient>
</defs>
</svg>
